<svg height="512pt" viewBox="0 -91 512 512" width="512pt" xmlns="http://www.w3.org/2000/svg"><path d="m466.128906 330.546875h-152.453125c-8.382812 0-15.179687-6.796875-15.179687-15.179687v-83.875c0-8.378907 6.796875-18.210938 15.179687-18.210938h152.453125c8.382813 0 15.179688 9.832031 15.179688 18.210938v83.875c0 8.382812-6.796875 15.179687-15.179688 15.179687zm0 0" fill="#7be3df"/><path d="m466.128906 213.28125h-76.226562v117.265625h76.226562c8.382813 0 15.179688-6.796875 15.179688-15.179687v-83.875c0-8.378907-6.796875-18.210938-15.179688-18.210938zm0 0" fill="#12c0c9"/><path d="m407.703125 273.429688h-35.601563c-8.382812 0-15.175781-6.792969-15.175781-15.175782 0-8.382812 6.792969-15.179687 15.175781-15.179687h35.601563c8.378906 0 15.175781 6.796875 15.175781 15.179687 0 8.382813-6.796875 15.175782-15.175781 15.175782zm0 0" fill="#323c47"/><path d="m407.703125 243.074219h-17.800781v30.355469h17.800781c8.378906 0 15.175781-6.792969 15.175781-15.175782 0-8.382812-6.796875-15.179687-15.175781-15.179687zm0 0" fill="#2d3238"/><path d="m298.496094 231.492188v-100.0625c0-8.382813 6.796875-26.308594 15.179687-26.308594h152.453125c8.382813 0 15.179688 17.925781 15.179688 26.308594v100.0625zm0 0" fill="#f2f6fc"/><path d="m466.128906 99.554688h-76.226562v131.429687h91.40625v-116.253906c0-8.382813-6.796875-15.175781-15.179688-15.175781zm0 0" fill="#dce1eb"/><path d="m407.703125 173.367188h-35.601563c-8.382812 0-15.175781-6.796876-15.175781-15.175782 0-8.382812 6.792969-15.179687 15.175781-15.179687h35.601563c8.378906 0 15.175781 6.796875 15.175781 15.179687 0 8.378906-6.796875 15.175782-15.175781 15.175782zm0 0" fill="#323c47"/><path d="m407.703125 143.011719h-17.800781v30.355469h17.800781c8.378906 0 15.175781-6.796876 15.175781-15.175782 0-8.382812-6.796875-15.179687-15.175781-15.179687zm0 0" fill="#2d3238"/><path d="m298.496094 131.429688v-116.25c0-8.382813 6.796875-15.179688 15.179687-15.179688h152.453125c8.382813 0 15.179688 6.796875 15.179688 15.179688v116.25zm0 0" fill="#7be3df"/><path d="m466.128906 0h-76.226562v131.429688h91.40625v-116.25c0-8.382813-6.796875-15.179688-15.179688-15.179688zm0 0" fill="#12c0c9"/><path d="m407.703125 70.269531h-35.601563c-8.382812 0-15.175781-6.796875-15.175781-15.179687 0-8.382813 6.792969-15.175782 15.175781-15.175782h35.601563c8.378906 0 15.175781 6.792969 15.175781 15.175782 0 8.382812-6.796875 15.179687-15.175781 15.179687zm0 0" fill="#323c47"/><path d="m407.703125 39.914062h-17.800781v30.355469h17.800781c8.378906 0 15.175781-6.796875 15.175781-15.179687 0-8.382813-6.796875-15.175782-15.175781-15.175782zm0 0" fill="#2d3238"/><path d="m45.871094 330.546875c-8.382813 0-15.179688-6.796875-15.179688-15.179687v-300.1875c0-8.382813 6.796875-15.179688 15.179688-15.179688 8.382812 0 15.175781 6.796875 15.175781 15.179688v300.1875c0 8.382812-6.792969 15.179687-15.175781 15.179687zm0 0" fill="#ffd84d"/><path d="m496.820312 30.355469h-481.640624c-8.382813 0-15.179688-6.796875-15.179688-15.175781 0-8.382813 6.796875-15.179688 15.179688-15.179688h481.640624c8.382813 0 15.179688 6.796875 15.179688 15.179688 0 8.378906-6.796875 15.175781-15.179688 15.175781zm0 0" fill="#f28424"/><path d="m496.820312 0h-240.820312v30.355469h240.820312c8.382813 0 15.179688-6.796875 15.179688-15.175781 0-8.382813-6.796875-15.179688-15.179688-15.179688zm0 0" fill="#a14800"/></svg>