<svg height="512pt" viewBox="0 0 512 512" width="512pt" xmlns="http://www.w3.org/2000/svg"><path d="m512 120v208.597656l-38.5 21.003906-217.5 16.199219-187 13.800781-69-51.003906v-208.597656h301l15.601562-30 14.398438 30h120l15-30 15 30zm0 0" fill="#e0f4ff"/><path d="m512 120v208.597656l-38.5 21.003906-217.5 16.199219v-245.800781h45l15.601562-30 14.398438 30h120l15-30 15 30zm0 0" fill="#bbdcff"/><path d="m331 60v60h-30v-60c0-16.5-13.5-30-30-30-5.398438 0-10.5 1.5-15 4.199219-9 5.101562-15 14.699219-15 25.800781v264.398438h-30v-264.398438c0-27.898438 19.199219-51.300781 45-57.898438 4.800781-1.503906 9.902344-2.101562 15-2.101562 33 0 60 27 60 60zm0 0" fill="#766e6e"/><path d="m421 0c-33.089844 0-60 26.910156-60 60v294.496094h30v-294.496094c0-16.539062 13.460938-30 30-30s30 13.460938 30 30v60h30v-60c0-33.089844-26.910156-60-60-60zm0 0" fill="#5b5555"/><path d="m512 328.597656v90.601563l-52 46.300781h-407.5l-52.5-46.601562v-90.296876c7.800781-1.800781 15.601562-4.503906 22.5-9 32.402344-21.601562 75.097656-21.601562 107.5 0 22.5 14.699219 51 14.699219 73.5 0 15.902344-10.800781 34.5-16.203124 52.5-16.203124 18.898438 0 37.5 5.402343 54 16.203124 22.5 14.699219 51 14.699219 73.5 0 32.402344-21.601562 74.097656-21.601562 106.5 0 6.601562 4.199219 14.5 7.199219 22 8.996094zm0 0" fill="#6aa9ff"/><path d="m512 328.597656v90.601563l-52 46.300781h-204v-162.101562c18.898438 0 37.5 5.402343 54 16.203124 22.5 14.699219 51 14.699219 73.5 0 32.402344-21.601562 74.097656-21.601562 106.5 0 6.601562 4.199219 14.5 7.199219 22 8.996094zm0 0" fill="#4895ff"/><path d="m226 181h150v30h-150zm0 0" fill="#766e6e"/><path d="m226 241h150v30h-150zm0 0" fill="#766e6e"/><path d="m512 419.199219v92.800781h-512v-93.101562c13.800781-2.097657 27.300781-6.300782 39-14.398438 22.5-14.699219 52-14.699219 74.5 0 32.402344 21.601562 74.097656 21.601562 106.5 0 11.101562-7.5 23.699219-11.101562 36-11.101562 13.199219 0 26.101562 3.601562 37.5 11.101562 16.199219 10.800781 34.800781 16.199219 53.101562 16.199219 18.597657 0 37.199219-5.398438 53.398438-16.199219 22.5-14.699219 51.300781-14.699219 73.5 0 11.398438 7.5 25.300781 12.300781 38.5 14.699219zm0 0" fill="#7ed8f6"/><path d="m473.5 404.5c11.398438 7.5 25.300781 12.300781 38.5 14.699219v92.800781h-256v-118.601562c13.199219 0 26.101562 3.601562 37.5 11.101562 16.199219 10.800781 34.800781 16.199219 53.101562 16.199219 18.597657 0 37.199219-5.398438 53.398438-16.199219 22.5-14.699219 51.300781-14.699219 73.5 0zm0 0" fill="#6aa9ff"/><g fill="#5b5555"><path d="m331 60v60h-30v-60c0-16.5-13.5-30-30-30-5.398438 0-10.5 1.5-15 4.199219v-32.097657c4.800781-1.503906 9.902344-2.101562 15-2.101562 33 0 60 27 60 60zm0 0"/><path d="m256 181h120v30h-120zm0 0"/><path d="m256 241h120v30h-120zm0 0"/></g></svg>