<svg height="511pt" viewBox="1 1 511 511.9995" width="511pt" xmlns="http://www.w3.org/2000/svg"><g fill="#555a66"><path d="m15.53125 364.964844c-3.847656 0-7.691406-1.46875-10.628906-4.402344-5.871094-5.871094-5.871094-15.390625 0-21.261719l21.777344-21.777343c5.871093-5.871094 15.390624-5.871094 21.261718 0 5.871094 5.871093 5.871094 15.390624 0 21.261718l-21.777344 21.777344c-2.9375 2.933594-6.785156 4.402344-10.632812 4.402344zm0 0"/><path d="m44.941406 394.371094c-3.847656 0-7.695312-1.464844-10.632812-4.402344-5.871094-5.871094-5.871094-15.390625 0-21.261719l21.777344-21.777343c5.871093-5.867188 15.390624-5.867188 21.261718 0 5.871094 5.871093 5.871094 15.390624 0 21.261718l-21.777344 21.777344c-2.933593 2.933594-6.785156 4.402344-10.628906 4.402344zm0 0"/><path d="m74.347656 423.777344c-3.847656 0-7.695312-1.464844-10.632812-4.402344-5.867188-5.871094-5.867188-15.390625 0-21.261719l21.78125-21.777343c5.871094-5.871094 15.386718-5.871094 21.257812 0 5.871094 5.871093 5.871094 15.390624 0 21.261718l-21.777344 21.777344c-2.933593 2.9375-6.78125 4.402344-10.628906 4.402344zm0 0"/></g><path d="m103.753906 453.1875c-3.847656 0-7.695312-1.46875-10.628906-4.402344-5.871094-5.871094-5.871094-15.390625 0-21.261718l21.777344-21.777344c5.871094-5.871094 15.390625-5.871094 21.261718 0 5.871094 5.871094 5.871094 15.386718 0 21.257812l-21.777343 21.78125c-2.9375 2.933594-6.785157 4.402344-10.632813 4.402344zm0 0" fill="#323c47"/><path d="m133.160156 482.59375c-3.847656 0-7.695312-1.46875-10.628906-4.402344-5.871094-5.871094-5.871094-15.390625 0-21.261718l21.777344-21.777344c5.871094-5.871094 15.390625-5.871094 21.261718 0 5.871094 5.871094 5.871094 15.390625 0 21.261718l-21.777343 21.777344c-2.9375 2.933594-6.785157 4.402344-10.632813 4.402344zm0 0" fill="#323c47"/><path d="m162.570312 512c-3.847656 0-7.695312-1.46875-10.632812-4.402344-5.871094-5.871094-5.871094-15.390625 0-21.261718l21.777344-21.777344c5.871094-5.871094 15.390625-5.871094 21.261718 0 5.871094 5.871094 5.871094 15.390625 0 21.261718l-21.777343 21.777344c-2.9375 2.933594-6.785157 4.402344-10.628907 4.402344zm0 0" fill="#323c47"/><path d="m328.652344 51.84375c-3.847656 0-7.695313-1.464844-10.628906-4.402344-5.871094-5.871094-5.871094-15.390625 0-21.261718l21.777343-21.777344c5.871094-5.871094 15.390625-5.871094 21.261719 0s5.871094 15.390625 0 21.261718l-21.777344 21.777344c-2.9375 2.9375-6.785156 4.402344-10.632812 4.402344zm0 0" fill="#555a66"/><path d="m358.058594 81.25c-3.847656 0-7.695313-1.464844-10.628906-4.402344-5.871094-5.871094-5.871094-15.386718 0-21.257812l21.777343-21.78125c5.871094-5.871094 15.390625-5.871094 21.261719 0s5.871094 15.390625 0 21.261718l-21.777344 21.777344c-2.9375 2.9375-6.785156 4.402344-10.632812 4.402344zm0 0" fill="#555a66"/><path d="m387.46875 110.660156c-3.847656 0-7.695312-1.46875-10.632812-4.402344-5.871094-5.871093-5.871094-15.390624 0-21.261718l21.777343-21.777344c5.871094-5.871094 15.390625-5.871094 21.261719 0s5.871094 15.386719 0 21.257812l-21.777344 21.78125c-2.933594 2.933594-6.78125 4.402344-10.628906 4.402344zm0 0" fill="#555a66"/><path d="m416.875 140.066406c-3.847656 0-7.695312-1.46875-10.632812-4.40625-5.867188-5.871094-5.867188-15.386718 0-21.257812l21.78125-21.777344c5.871093-5.871094 15.386718-5.871094 21.257812 0s5.871094 15.386719 0 21.257812l-21.777344 21.777344c-2.933594 2.9375-6.78125 4.40625-10.628906 4.40625zm0 0" fill="#323c47"/><path d="m446.28125 169.472656c-3.847656 0-7.695312-1.46875-10.628906-4.402344-5.871094-5.871093-5.871094-15.390624 0-21.261718l21.777344-21.777344c5.871093-5.871094 15.386718-5.871094 21.261718 0 5.867188 5.871094 5.867188 15.390625 0 21.261719l-21.78125 21.777343c-2.933594 2.933594-6.78125 4.402344-10.628906 4.402344zm0 0" fill="#323c47"/><path d="m475.6875 198.878906c-3.847656 0-7.695312-1.464844-10.628906-4.402344-5.871094-5.871093-5.871094-15.390624 0-21.261718l21.777344-21.777344c5.871093-5.871094 15.390624-5.871094 21.261718 0 5.867188 5.871094 5.867188 15.390625 0 21.261719l-21.78125 21.777343c-2.933594 2.933594-6.78125 4.402344-10.628906 4.402344zm0 0" fill="#323c47"/><path d="m184.347656 496.449219-168.296875-168.296875 312.601563-312.601563 168.296875 168.296875zm0 0" fill="#7be3df"/><path d="m184.347656 496.449219-84.148437-84.148438 312.601562-312.601562 84.148438 84.148437zm0 0" fill="#12c0c9"/><path d="m236.085938 444.710938-168.296876-168.296876 209.125-209.125 168.296876 168.296876zm0 0" fill="#ffd84d"/><path d="m236.085938 444.710938-84.148438-84.148438 209.125-209.125 84.148438 84.148438zm0 0" fill="#ff8929"/></svg>