<svg height="512pt" viewBox="0 -54 512.001 512" width="512pt" xmlns="http://www.w3.org/2000/svg"><path d="m473.699219 313.15625h-435.398438v-238.871094c0-40.960937 33.324219-74.285156 74.285157-74.285156h286.828124c40.960938 0 74.285157 33.324219 74.285157 74.285156zm0 0" fill="#12c0c9"/><path d="m399.414062 0h-143.414062v313.15625h217.699219v-238.871094c0-40.960937-33.324219-74.285156-74.285157-74.285156zm0 0" fill="#00979c"/><path d="m420.332031 277.503906h-328.664062c-8.320313 0-15.066407-6.746094-15.066407-15.066406v-31.605469c0-26.902343 21.882813-48.785156 48.785157-48.785156h261.226562c26.902344 0 48.785157 21.882813 48.785157 48.785156v31.605469c0 8.320312-6.746094 15.066406-15.066407 15.066406zm0 0" fill="#00979c"/><path d="m386.613281 182.046875h-130.613281v95.457031h164.332031c8.320313 0 15.066407-6.746094 15.066407-15.066406v-31.605469c0-26.902343-21.882813-48.785156-48.785157-48.785156zm0 0" fill="#0f5a64"/><path d="m108.253906 403.3125h-57.25c-8.324218 0-15.070312-6.746094-15.070312-15.066406v-49.207032c0-8.324218 6.746094-15.070312 15.070312-15.070312h57.25c8.320313 0 15.066406 6.746094 15.066406 15.070312v49.207032c.003907 8.320312-6.742187 15.066406-15.066406 15.066406zm0 0" fill="#323c47"/><path d="m458.632812 403.3125h-57.253906c-8.320312 0-15.066406-6.746094-15.066406-15.066406v-49.207032c0-8.324218 6.746094-15.070312 15.066406-15.070312h57.253906c8.320313 0 15.066407 6.746094 15.066407 15.070312v49.207032c0 8.320312-6.746094 15.066406-15.066407 15.066406zm0 0" fill="#2d3238"/><path d="m461.003906 354.105469h-410c-28.121094 0-50.99999975-22.878907-50.99999975-50.996094l-.00390625-122.335937c0-29.425782 23.941406-53.367188 53.367188-53.367188 29.425781 0 53.367187 23.941406 53.367187 53.367188v66.59375h298.53125v-66.59375c0-29.425782 23.9375-53.367188 53.367187-53.367188 29.425782 0 53.367188 23.941406 53.367188 53.367188v122.332031c0 28.121093-22.878906 51-50.996094 51zm0 0" fill="#7be3df"/><path d="m458.632812 127.40625c-29.425781 0-53.367187 23.941406-53.367187 53.367188v66.597656h-149.265625v106.734375h205.003906c28.121094 0 50.996094-22.878907 50.996094-51v-122.332031c0-29.425782-23.941406-53.367188-53.367188-53.367188zm0 0" fill="#12c0c9"/></svg>