<?xml version="1.0" encoding="iso-8859-1"?>
<!-- Generator: Adobe Illustrator 19.0.0, SVG Export Plug-In . SVG Version: 6.00 Build 0)  -->
<svg version="1.1" id="Capa_1" xmlns="http://www.w3.org/2000/svg" xmlns:xlink="http://www.w3.org/1999/xlink" x="0px" y="0px"
	 viewBox="0 0 512 512" style="enable-background:new 0 0 512 512;" xml:space="preserve">
<path style="fill:#4492E0;" d="M313.988,117.43c0-31.975-26.014-57.989-57.989-57.989s-57.989,26.014-57.989,57.989
	s26.014,57.989,57.989,57.989S313.988,149.404,313.988,117.43z"/>
<path style="fill:#78D1FF;" d="M255.999,59.441c-31.975,0-57.989,26.014-57.989,57.989s26.014,57.989,57.989,57.989V59.441z"/>
<path style="fill:#4492E0;" d="M222.752,233.064c0-31.975-26.014-57.989-57.989-57.989s-57.989,26.014-57.989,57.989
	s26.014,57.989,57.989,57.989S222.752,265.039,222.752,233.064z"/>
<path style="fill:#78D1FF;" d="M164.763,175.076c-31.975,0-57.989,26.014-57.989,57.989s26.014,57.989,57.989,57.989V175.076z"/>
<path style="fill:#4492E0;" d="M405.224,233.064c0-31.975-26.014-57.989-57.989-57.989s-57.989,26.014-57.989,57.989
	s26.014,57.989,57.989,57.989S405.224,265.039,405.224,233.064z"/>
<path style="fill:#78D1FF;" d="M347.237,175.076c-31.975,0-57.989,26.014-57.989,57.989s26.014,57.989,57.989,57.989V175.076z"/>
<path style="fill:#FF9E42;" d="M490.156,276.487c-2.839-3.237-6.935-5.093-11.241-5.093H33.085c-4.306,0-8.403,1.856-11.241,5.093
	s-4.144,7.541-3.581,11.811l12.556,95.265c5.184,39.334,39.013,68.996,78.686,68.996h292.991c39.674,0,73.502-29.662,78.686-68.996
	l12.556-95.265C494.301,284.029,492.995,279.724,490.156,276.487z"/>
<path style="fill:#FFDE59;" d="M255.999,271.393H33.085c-4.306,0-8.403,1.856-11.241,5.093s-4.144,7.541-3.581,11.811l12.556,95.265
	c5.184,39.334,39.013,68.996,78.686,68.996H256V271.393H255.999z"/>
<path style="fill:#BDD1DE;" d="M497.049,223.83H14.951C6.694,223.83,0,230.525,0,238.782v56.613c0,8.257,6.694,14.951,14.951,14.951
	h482.098c8.257,0,14.951-6.694,14.951-14.951v-56.613C512,230.525,505.306,223.83,497.049,223.83z"/>
<path style="fill:#E7F7FB;" d="M255.999,223.83H14.951C6.694,223.83,0,230.525,0,238.782v56.613c0,8.257,6.694,14.951,14.951,14.951
	H256L255.999,223.83L255.999,223.83z"/>
<g>
</g>
<g>
</g>
<g>
</g>
<g>
</g>
<g>
</g>
<g>
</g>
<g>
</g>
<g>
</g>
<g>
</g>
<g>
</g>
<g>
</g>
<g>
</g>
<g>
</g>
<g>
</g>
<g>
</g>
</svg>
