<svg height="511pt" viewBox="0 0 511.99975 511" width="511pt" xmlns="http://www.w3.org/2000/svg"><path d="m511.0625 492.628906-89.988281-270.960937c-1.796875-6-7.496094-10.199219-14.09375-10.199219h-301.957031c-6.601563 0-12.300782 4.199219-14.097657 10.199219l-89.988281 270.960937c-1.800781 4.5-.9023438 9.597656 1.800781 13.496094 2.996094 3.902344 7.496094 6.300781 12.296875 6.300781h481.929688c4.800781 0 9.300781-2.398437 12.296875-6.300781 2.703125-3.898438 3.601562-8.996094 1.800781-13.496094zm0 0" fill="#c6e2e7"/><path d="m509.261719 506.125c-2.996094 3.902344-7.496094 6.300781-12.296875 6.300781h-240.964844v-300.957031h150.980469c6.597656 0 12.296875 4.199219 14.09375 10.199219l89.988281 270.960937c1.800781 4.5.902344 9.597656-1.800781 13.496094zm0 0" fill="#a8d3d8"/><path d="m396.179688 241.464844h-280.359376l-80.089843 240.964844h440.539062zm0 0" fill="#deecf1"/><g fill="#c6e2e7"><path d="m476.269531 482.429688h-220.269531v-240.964844h140.179688zm0 0"/><path d="m270.996094 226.46875v270.960938c0 8.398437-6.597656 14.996093-14.996094 14.996093s-14.996094-6.597656-14.996094-14.996093v-270.960938c0-8.402344 6.597656-15 14.996094-15s14.996094 6.597656 14.996094 15zm0 0"/><path d="m461.871094 346.449219c0 8.398437-6.601563 15-15 15h-381.746094c-8.398438 0-14.996094-6.601563-14.996094-15 0-8.398438 6.597656-14.996094 14.996094-14.996094h381.746094c8.398437 0 15 6.597656 15 14.996094zm0 0"/></g><path d="m226.003906 91.488281c-24.898437 0-44.992187-20.097656-44.992187-44.996093 0-8.398438-6.597657-14.996094-15-14.996094-8.398438 0-14.996094 6.597656-14.996094 14.996094 0 24.898437-20.097656 44.996093-44.996094 44.996093-8.398437 0-14.996093 6.597657-14.996093 14.996094s6.597656 15 14.996093 15c24.898438 0 44.996094 20.09375 44.996094 44.992187 0 8.398438 6.597656 14.996094 14.996094 14.996094 8.402343 0 15-6.597656 15-14.996094 0-24.898437 20.09375-44.992187 44.992187-44.992187 8.398438 0 15-6.601563 15-15s-6.601562-14.996094-15-14.996094zm0 0" fill="#ffd400"/><path d="m241.003906 106.484375c0 8.398437-6.601562 15-15 15-24.898437 0-44.992187 20.09375-44.992187 44.992187 0 8.398438-6.597657 14.996094-15 14.996094v-149.976562c8.402343 0 15 6.597656 15 14.996094 0 24.898437 20.09375 44.996093 44.992187 44.996093 8.398438 0 15 6.597657 15 14.996094zm0 0" fill="#fdbf00"/><path d="m405.980469 61.492188c-24.898438 0-44.996094-21.097657-44.996094-45.996094 0-8.398438-6.597656-14.996094-14.996094-14.996094-8.402343 0-15 6.597656-15 14.996094 0 24.898437-20.09375 45.996094-44.992187 45.996094-8.398438 0-15 6.597656-15 14.996093 0 8.402344 6.601562 15 15 15 24.898437 0 44.992187 20.09375 44.992187 44.992188 0 8.398437 6.597657 14.996093 15 14.996093 8.398438 0 14.996094-6.597656 14.996094-14.996093 0-24.898438 20.097656-44.992188 44.996094-44.992188 8.398437 0 14.996093-6.597656 14.996093-15 0-8.398437-6.597656-14.996093-14.996093-14.996093zm0 0" fill="#ffd400"/><path d="m420.976562 76.488281c0 8.402344-6.597656 15-14.996093 15-24.898438 0-44.996094 20.09375-44.996094 44.992188 0 8.398437-6.597656 14.996093-14.996094 14.996093v-150.976562c8.398438 0 14.996094 6.597656 14.996094 14.996094 0 24.898437 20.097656 45.996094 44.996094 45.996094 8.398437 0 14.996093 6.597656 14.996093 14.996093zm0 0" fill="#fdbf00"/><path d="m270.996094 226.46875v270.960938c0 8.398437-6.597656 14.996093-14.996094 14.996093v-300.957031c8.398438 0 14.996094 6.597656 14.996094 15zm0 0" fill="#a8d3d8"/><path d="m461.871094 346.449219c0 8.398437-6.601563 15-15 15h-190.871094v-29.996094h190.875c8.394531 0 14.996094 6.597656 14.996094 14.996094zm0 0" fill="#a8d3d8"/></svg>