<svg height="512pt" viewBox="-61 0 512 512" width="512pt" xmlns="http://www.w3.org/2000/svg"><path d="m0 226c0 107.699219 87.300781 195 195 195l30-60v-165h-157.5zm0 0" fill="#a8d32a"/><path d="m333 88c-35.402344-35.101562-84-57-138-57s-102.597656 21.898438-138 57c-35.101562 35.398438-57 84-57 138h195v195c54 0 102.597656-21.902344 138-57 35.101562-35.402344 57-84 57-138s-21.898438-102.601562-57-138zm0 0" fill="#b9dd39"/><path d="m62.402344 421.300781s-15 79-15.300782 79.300781c-1.5 6.597657-7.199218 11.398438-14.398437 11.398438h-5.101563c-6.898437 0-12.902343-4.5-14.398437-11.101562-.753906-3.015626-.304687-2.222657-13.19921875-79.898438l31.19921875-29.851562zm0 0" fill="#a8d3d8"/><path d="m390 226c0 54-21.898438 102.597656-57 138-35.402344 35.097656-84 57-138 57v-390c54 0 102.597656 21.898438 138 57 35.101562 35.398438 57 84 57 138zm0 0" fill="#93bf00"/><path d="m195 91c-74.398438 0-135 60.597656-135 135 0 74.398438 60.601562 135 135 135s135-60.601562 135-135c0-74.402344-60.601562-135-135-135zm0 0" fill="#93bf00"/><path d="m330 226c0 74.398438-60.601562 135-135 135v-270c74.398438 0 135 60.597656 135 135zm0 0" fill="#81a713"/><path d="m195 151c-41.398438 0-75 33.601562-75 75s33.601562 75 75 75 75-33.601562 75-75-33.601562-75-75-75zm0 0" fill="#b9dd39"/><path d="m270 226c0 41.398438-33.601562 75-75 75v-150c41.398438 0 75 33.601562 75 75zm0 0" fill="#a8d32a"/><path d="m225 15v136c0 16.5-13.5 30-30 30s-30-13.5-30-30v-136c0-8.402344 6.597656-15 15-15h30c8.402344 0 15 6.597656 15 15zm0 0" fill="#4a696f"/><path d="m225 15v136c0 16.5-13.5 30-30 30v-181h15c8.402344 0 15 6.597656 15 15zm0 0" fill="#3e5959"/><path d="m60 421v-60l-30-30-30 30v60zm0 0" fill="#4a696f"/><path d="m0 211h60v150h-60zm0 0" fill="#b9dd39"/></svg>