<svg height="512pt" viewBox="0 -91 512 512" width="512pt" xmlns="http://www.w3.org/2000/svg"><path d="m496.820312 0h-481.640624c-8.382813 0-15.179688 6.796875-15.179688 15.179688 0 8.378906 6.796875 15.175781 15.179688 15.175781h15.511718v285.011719c0 8.382812 6.796875 15.179687 15.179688 15.179687 8.382812 0 15.175781-6.796875 15.175781-15.179687v-285.011719h237.449219v285.011719c0 8.382812 6.796875 15.179687 15.179687 15.179687h152.453125c8.382813 0 15.179688-6.796875 15.179688-15.179687v-285.011719h15.511718c8.382813 0 15.179688-6.796875 15.179688-15.175781 0-8.382813-6.796875-15.179688-15.179688-15.179688zm-45.867187 200.125h-122.097656v-69.707031h122.097656zm0 100.066406h-122.097656v-69.710937h122.097656zm0-200.128906h-122.097656v-69.707031h122.097656zm0 0"/><path d="m372.101562 70.269531h35.601563c8.378906 0 15.175781-6.796875 15.175781-15.179687 0-8.382813-6.796875-15.175782-15.175781-15.175782h-35.601563c-8.382812 0-15.175781 6.792969-15.175781 15.175782 0 8.382812 6.792969 15.179687 15.175781 15.179687zm0 0"/><path d="m372.101562 170.332031h35.601563c8.378906 0 15.175781-6.796875 15.175781-15.179687 0-8.378906-6.796875-15.175782-15.175781-15.175782h-35.601563c-8.382812 0-15.175781 6.796876-15.175781 15.175782 0 8.382812 6.792969 15.179687 15.175781 15.179687zm0 0"/><path d="m372.101562 270.394531h35.601563c8.378906 0 15.175781-6.792969 15.175781-15.175781s-6.796875-15.179688-15.175781-15.179688h-35.601563c-8.382812 0-15.175781 6.796876-15.175781 15.179688s6.792969 15.175781 15.175781 15.175781zm0 0"/></svg>