<svg height="512pt" viewBox="0 0 512 512" width="512pt" xmlns="http://www.w3.org/2000/svg"><path d="m482 60c0-33.425781-28.113281-60-61-60-33.085938 0-60 26.914062-60 60v61h-30v-61c0-33.085938-26.914062-60-60-60s-60 26.914062-60 60v61h-211v391h512c0-19.785156 0-377.101562 0-391h-30zm-91 0c0-16.542969 13.457031-30 30-30 16.804688 0 31 13.738281 31 30v61h-61zm91 254.253906c-28.320312-14.605468-62.902344-14.332031-91 .804688v-164.058594h91zm0 60c-30.921875-15.945312-69.316406-14.171875-98.570312 5.332032-22.285157 14.855468-51.078126 14.855468-73.359376 0-32.390624-21.59375-74.25-21.59375-106.640624 0-22.285157 14.855468-51.078126 14.855468-73.359376 0-29.730468-19.820313-68.894531-21.320313-100.070312-4.527344v-25.15625c3.117188-1.617188 6.148438-3.40625 9.070312-5.355469 22.238282-14.824219 52.121094-14.824219 74.359376 0 16.195312 10.800781 34.753906 16.199219 53.320312 16.195313 18.558594 0 37.125-5.398438 53.320312-16.191407 22.28125-14.855469 51.074219-14.855469 73.359376 0 16.195312 10.796875 34.753906 16.195313 53.316406 16.195313 18.5625-.003906 37.128906-5.398438 53.320312-16.195313 22.238282-14.828125 52.121094-14.828125 74.363282 0 2.449218 1.632813 4.976562 3.15625 7.566406 4.558594v25.144531zm-121-133.253906h-120v-30h120zm-120 30h120v58.164062c-17.234375 3.820313-35.617188.628907-50.929688-9.578124-20.792968-13.863282-45.484374-18.808594-69.070312-14.875zm120-90h-120v-30h120zm-120-121c0-16.542969 13.457031-30 30-30s30 13.457031 30 30v61h-60zm-30 91v164.039062c-2.570312 1.394532-5.101562 2.902344-7.570312 4.546876-22.285157 14.855468-51.078126 14.855468-73.359376 0-29.730468-19.820313-68.894531-21.320313-100.070312-4.527344v-164.058594zm-181 331v-72.097656c3.117188-1.621094 6.148438-3.40625 9.070312-5.355469 22.238282-14.824219 52.117188-14.824219 74.359376 0 16.195312 10.800781 34.753906 16.195313 53.316406 16.195313s37.128906-5.398438 53.320312-16.195313c22.285156-14.855469 51.078125-14.855469 73.359375 0 16.199219 10.800781 34.757813 16.199219 53.320313 16.195313 18.5625 0 37.128906-5.398438 53.320312-16.191407 22.238282-14.828125 52.121094-14.828125 74.359375 0 2.453125 1.632813 4.980469 3.148438 7.570313 4.550781v72.898438zm0 0"/></svg>