<svg height="512pt" viewBox="0 -54 512.001 512" width="512pt" xmlns="http://www.w3.org/2000/svg"><path d="m473.699219 129.585938v-55.300782c0-40.960937-33.324219-74.285156-74.285157-74.285156h-286.828124c-40.960938 0-74.285157 33.324219-74.285157 74.285156v55.300782c-22.109375 6.519531-38.300781 26.992187-38.300781 51.1875l.00390625 122.335937c0 22.875 15.14453175 42.28125 35.92968775 48.722656v36.414063c0 8.320312 6.75 15.070312 15.070312 15.070312h57.25c8.324219 0 15.070313-6.75 15.070313-15.070312v-34.140625h262.988281v34.140625c0 8.320312 6.746094 15.070312 15.066406 15.070312h57.253906c8.320313 0 15.066407-6.75 15.066407-15.070312v-35.742188c22-5.65625 38.300781-25.65625 38.300781-49.394531v-122.335937c0-24.195313-16.191406-44.667969-38.300781-51.1875zm-30.132813-55.300782v55.300782c-22.113281 6.519531-38.300781 26.992187-38.300781 51.1875v4.984374c-5.75-2.386718-12.046875-3.710937-18.652344-3.710937h-115.546875v-151.910156h128.347656c24.34375 0 44.152344 19.804687 44.152344 44.148437zm-336.832031 156.546875c0-10.285156 8.367187-18.652343 18.652344-18.652343h261.226562c10.285157 0 18.652344 8.367187 18.652344 18.652343v16.535157h-298.53125zm5.851563-200.695312h128.347656v151.910156h-115.546875c-6.601563 0-12.902344 1.324219-18.652344 3.710937v-4.984374c0-24.191407-16.1875-44.664063-38.296875-51.1875v-55.296876c-.003906-24.347656 19.804688-44.152343 44.148438-44.152343zm-19.398438 343.042969h-27.117188v-19.074219h27.117188zm350.378906 0h-27.121094v-19.074219h27.121094zm38.296875-70.074219c0 11.503906-9.359375 20.863281-20.859375 20.863281h-410c-11.503906 0-20.863281-9.359375-20.867187-20.859375v-122.335937c0-12.808594 10.421875-23.230469 23.230469-23.230469 12.8125 0 23.234374 10.421875 23.234374 23.230469v81.664062c0 8.320312 6.746094 15.066406 15.066407 15.066406h328.664062c8.320313 0 15.066407-6.746094 15.066407-15.066406v-81.664062c0-12.8125 10.421874-23.234376 23.234374-23.234376 12.808594 0 23.230469 10.421876 23.230469 23.234376zm0 0"/></svg>