<?xml version="1.0" encoding="iso-8859-1"?>
<!-- Generator: Adobe Illustrator 19.0.0, SVG Export Plug-In . SVG Version: 6.00 Build 0)  -->
<svg version="1.1" id="Capa_1" xmlns="http://www.w3.org/2000/svg" xmlns:xlink="http://www.w3.org/1999/xlink" x="0px" y="0px"
	 viewBox="0 0 512 512" style="enable-background:new 0 0 512 512;" xml:space="preserve">
<g>
	<g>
		<path d="M256,59.429c-31.997,0-58.029,26.032-58.029,58.029s26.032,58.028,58.029,58.028s58.029-26.031,58.029-58.028
			C314.029,85.461,287.997,59.429,256,59.429z M256,145.486c-15.455,0-28.029-12.573-28.029-28.028
			c0-15.455,12.574-28.029,28.029-28.029s28.029,12.574,28.029,28.029C284.029,132.913,271.455,145.486,256,145.486z"/>
	</g>
</g>
<g>
	<g>
		<path d="M497,223.785h-89.833c-4.482-29.057-29.657-51.376-59.949-51.376s-55.468,22.319-59.949,51.376h-62.537
			c-4.482-29.057-29.657-51.376-59.949-51.376c-30.292,0-55.468,22.319-59.949,51.376H15c-8.284,0-15,6.716-15,15v56.602
			c0,8.284,6.716,15,15,15h6.17l9.642,73.157c5.187,39.352,39.03,69.027,78.722,69.027h292.932
			c39.692,0,73.536-29.676,78.722-69.027l9.642-73.157H497c8.284,0,15-6.716,15-15v-56.602C512,230.501,505.284,223.785,497,223.785
			z M347.218,202.409c13.671,0,25.276,8.995,29.219,21.376h-58.438C321.941,211.404,333.547,202.409,347.218,202.409z
			 M164.782,202.409c13.67,0,25.277,8.995,29.219,21.376h-58.438C139.506,211.404,151.112,202.409,164.782,202.409z
			 M451.444,379.624c-3.227,24.484-24.283,42.947-48.979,42.947H109.534c-24.696,0-45.752-18.463-48.979-42.947l-9.126-69.237
			H460.57L451.444,379.624z M482,280.387H30v-26.602h452V280.387z"/>
	</g>
</g>
<g>
</g>
<g>
</g>
<g>
</g>
<g>
</g>
<g>
</g>
<g>
</g>
<g>
</g>
<g>
</g>
<g>
</g>
<g>
</g>
<g>
</g>
<g>
</g>
<g>
</g>
<g>
</g>
<g>
</g>
</svg>
