<svg height="512pt" viewBox="-61 0 512 512" width="512pt" xmlns="http://www.w3.org/2000/svg"><path d="m225 0h-60c-8.285156 0-15 6.714844-15 15v20.226562c-86.875 20.574219-150 98.464844-150 189.773438v180c0 .316406.0976562 1.808594.195312 2.414062l15 92c1.183594 7.257813 7.453126 12.585938 14.804688 12.585938h30c7.351562 0 13.621094-5.328125 14.804688-12.585938l15-92c.101562-.617187.195312-2.152343.195312-2.414062v-15.664062c31.15625 19.925781 67.503906 30.664062 105 30.664062 107.523438 0 195-87.476562 195-195 0-91.421875-63.230469-169.222656-150-189.773438v-20.226562c0-8.285156-6.714844-15-15-15zm-195 360h30v30h-30zm120-229.863281v34.863281.023438c-18.71875 14.066406-30 36.230468-30 59.976562 0 41.355469 33.644531 75 75 75s75-33.644531 75-75c0-23.746094-11.28125-45.910156-30-59.976562 0-.007813 0-.015626 0-.023438v-34.863281c36.109375 17.117187 60 53.738281 60 94.863281 0 57.898438-47.101562 105-105 105s-105-47.101562-105-105c0-41.125 23.890625-77.746094 60-94.863281zm78.507812 64.859375c7.285157 8.140625 11.492188 18.78125 11.492188 30.003906 0 24.8125-20.1875 45-45 45s-45-20.1875-45-45c0-11.222656 4.207031-21.863281 11.492188-30.003906 8.246093 9.203125 20.210937 15.003906 33.507812 15.003906s25.261719-5.800781 33.507812-15.003906zm-48.507812-164.996094h30v135c0 8.269531-6.730469 15-15 15s-15-6.730469-15-15zm-30 36.191406v31.515625c-53.535156 18.898438-90 69.671875-90 127.289063v105.003906h-30v-105c0-74.871094 49.5-139.046875 120-158.808594zm-107.246094 415.808594-10.109375-62h24.710938l-10.109375 62zm317.246094-257c0 90.980469-74.019531 165-165 165-38.464844 0-75.488281-13.355469-105-37.726562v-42.527344c24.769531 30.632812 62.632812 50.253906 105 50.253906 74.4375 0 135-60.5625 135-135 0-57.617188-36.464844-108.390625-90-127.292969v-31.515625c70.5 19.761719 120 83.9375 120 158.808594zm0 0"/></svg>