<svg height="512pt" viewBox="0 -16 512.0005 512" width="512pt" xmlns="http://www.w3.org/2000/svg"><path d="m437.75 191.671875c-5.851562 5.855469-15.363281 5.855469-21.214844 0-5.851562-5.851563-5.851562-15.359375 0-21.210937l-21.214844-21.214844-84.859374 84.855468 21.214843 21.214844c5.851563-5.851562 15.363281-5.851562 21.214844 0 5.851563 5.851563 5.851563 15.363282 0 21.214844l21.214844 21.214844 84.859375-84.859375zm0 0" fill="#b1bbe8"/><path d="m140.742188 276.53125 106.074218-106.070312 63.640625 63.640624-106.070312 106.070313zm0 0" fill="#cbd7f1"/><path d="m172.566406 308.351562 106.070313-106.070312 31.820312 31.820312-106.070312 106.074219zm0 0" fill="#b1bbe8"/><path d="m140.746094 255.316406-123.246094 123.246094c-23.332031 23.335938-23.332031 61.523438 0 84.855469 23.335938 23.335937 61.523438 23.335937 84.859375 0l123.246094-123.242188zm0 0" fill="#575f64"/><path d="m225.605469 340.175781-123.246094 123.242188c-23.335937 23.335937-61.523437 23.335937-84.859375 0l165.675781-165.671875zm0 0" fill="#474f54"/><path d="m448.355469 181.066406-106.070313 106.070313 63.644532 63.644531 106.070312-106.070312zm0 0" fill="#cbd7f1"/><path d="m289.246094 21.957031c-29.273438-29.277343-76.792969-29.277343-106.070313 0l-10.609375 10.609375 63.644532 63.640625-42.425782 42.429688 127.285156 127.289062 106.070313-106.074219zm0 0" fill="#d1ecff"/><path d="m321.070312 265.925781-53.035156-53.035156 106.070313-106.070313 53.035156 53.035157zm0 0" fill="#cbd7f1"/></svg>